<svg width="200" height="200" viewBox="0 0 200 200" fill="none" xmlns="http://www.w3.org/2000/svg">
<rect width="200" height="200" fill="#F5F5F5"/>
<rect width="200" height="200" fill="#FFFAF0"/>
<g filter="url(#filter0_d_0_1)">
<path d="M41.1375 68.2H67.4375C72.0375 68.2 76.2375 68.9333 80.0375 70.4C83.8375 71.8667 87.0708 74.0667 89.7375 77C92.4042 79.8667 94.4708 83.5 95.9375 87.9C97.4042 92.2333 98.1375 97.3 98.1375 103.1C98.1375 108.9 97.4042 114 95.9375 118.4C94.4708 122.733 92.4042 126.367 89.7375 129.3C87.0708 132.167 83.8375 134.333 80.0375 135.8C76.2375 137.267 72.0375 138 67.4375 138H41.1375V68.2ZM67.4375 124.5C71.9708 124.5 75.5375 123.233 78.1375 120.7C80.7375 118.167 82.0375 114.1 82.0375 108.5V97.7C82.0375 92.1 80.7375 88.0333 78.1375 85.5C75.5375 82.9667 71.9708 81.7 67.4375 81.7H56.3375V124.5H67.4375Z" fill="#ABE5BC"/>
<path d="M142.964 81.7V138H127.764V81.7H108.864V68.2H161.864V81.7H142.964Z" fill="#FFA89A"/>
<path d="M41.1375 68.2V64.2H37.1375V68.2H41.1375ZM80.0375 70.4L81.4778 66.6683L81.4778 66.6683L80.0375 70.4ZM89.7375 77L86.7777 79.6907L86.7932 79.7076L86.8088 79.7244L89.7375 77ZM95.9375 87.9L92.1428 89.1649L92.1457 89.1736L92.1486 89.1824L95.9375 87.9ZM95.9375 118.4L99.7264 119.682L99.7293 119.674L99.7322 119.665L95.9375 118.4ZM89.7375 129.3L92.6662 132.024L92.6819 132.008L92.6973 131.991L89.7375 129.3ZM80.0375 135.8L81.4778 139.532L81.4778 139.532L80.0375 135.8ZM41.1375 138H37.1375V142H41.1375V138ZM78.1375 85.5L80.929 82.6351L80.929 82.6351L78.1375 85.5ZM56.3375 81.7V77.7H52.3375V81.7H56.3375ZM56.3375 124.5H52.3375V128.5H56.3375V124.5ZM41.1375 72.2H67.4375V64.2H41.1375V72.2ZM67.4375 72.2C71.6082 72.2 75.3122 72.8638 78.5972 74.1317L81.4778 66.6683C77.1628 65.0029 72.4668 64.2 67.4375 64.2V72.2ZM78.5972 74.1317C81.8331 75.3806 84.5414 77.2307 86.7777 79.6907L92.6973 74.3093C89.6002 70.9026 85.8419 68.3527 81.4778 66.6683L78.5972 74.1317ZM86.8088 79.7244C89.0204 82.1019 90.8241 85.2088 92.1428 89.1649L99.7322 86.6351C98.1176 81.7912 95.7879 77.6314 92.6662 74.2756L86.8088 79.7244ZM92.1486 89.1824C93.4438 93.009 94.1375 97.6248 94.1375 103.1H102.138C102.138 96.9752 101.365 91.4577 99.7264 86.6176L92.1486 89.1824ZM94.1375 103.1C94.1375 108.573 93.4443 113.23 92.1428 117.135L99.7322 119.665C101.364 114.77 102.138 109.227 102.138 103.1H94.1375ZM92.1486 117.118C90.8315 121.009 89.0213 124.141 86.7777 126.609L92.6973 131.991C95.787 128.592 98.1102 124.457 99.7264 119.682L92.1486 117.118ZM86.8088 126.576C84.5722 128.98 81.8546 130.811 78.5972 132.068L81.4778 139.532C85.8204 137.856 89.5694 135.353 92.6662 132.024L86.8088 126.576ZM78.5972 132.068C75.3122 133.336 71.6082 134 67.4375 134V142C72.4668 142 77.1628 141.197 81.4778 139.532L78.5972 132.068ZM67.4375 134H41.1375V142H67.4375V134ZM45.1375 138V68.2H37.1375V138H45.1375ZM67.4375 128.5C72.7406 128.5 77.4069 126.997 80.929 123.565L75.346 117.835C73.6681 119.47 71.201 120.5 67.4375 120.5V128.5ZM80.929 123.565C84.6338 119.955 86.0375 114.605 86.0375 108.5H78.0375C78.0375 113.595 76.8412 116.378 75.346 117.835L80.929 123.565ZM86.0375 108.5V97.7H78.0375V108.5H86.0375ZM86.0375 97.7C86.0375 91.5954 84.6338 86.245 80.929 82.6351L75.346 88.3649C76.8412 89.8217 78.0375 92.6046 78.0375 97.7H86.0375ZM80.929 82.6351C77.4069 79.2034 72.7406 77.7 67.4375 77.7V85.7C71.201 85.7 73.6681 86.73 75.346 88.3649L80.929 82.6351ZM67.4375 77.7H56.3375V85.7H67.4375V77.7ZM52.3375 81.7V124.5H60.3375V81.7H52.3375ZM56.3375 128.5H67.4375V120.5H56.3375V128.5ZM142.964 81.7V77.7H138.964V81.7H142.964ZM142.964 138V142H146.964V138H142.964ZM127.764 138H123.764V142H127.764V138ZM127.764 81.7H131.764V77.7H127.764V81.7ZM108.864 81.7H104.864V85.7H108.864V81.7ZM108.864 68.2V64.2H104.864V68.2H108.864ZM161.864 68.2H165.864V64.2H161.864V68.2ZM161.864 81.7V85.7H165.864V81.7H161.864ZM138.964 81.7V138H146.964V81.7H138.964ZM142.964 134H127.764V142H142.964V134ZM131.764 138V81.7H123.764V138H131.764ZM127.764 77.7H108.864V85.7H127.764V77.7ZM112.864 81.7V68.2H104.864V81.7H112.864ZM108.864 72.2H161.864V64.2H108.864V72.2ZM157.864 68.2V81.7H165.864V68.2H157.864ZM161.864 77.7H142.964V85.7H161.864V77.7Z" fill="#1E1E1E"/>
</g>
<g filter="url(#filter1_d_0_1)">
<rect x="24.0344" y="148" width="87.0944" height="32" rx="16" transform="rotate(36.5 24.0344 148)" fill="#CFADE8"/>
<rect x="24.4525" y="150.797" width="83.0944" height="28" rx="14" transform="rotate(36.5 24.4525 150.797)" stroke="#1E1E1E" stroke-width="4"/>
</g>
<g filter="url(#filter2_d_0_1)">
<rect y="44.8856" width="232" height="32" rx="16" transform="rotate(-61.5 0 44.8856)" fill="#FFD787"/>
<rect x="2.71195" y="44.0823" width="228" height="28" rx="14" transform="rotate(-61.5 2.71195 44.0823)" stroke="#1E1E1E" stroke-width="4"/>
</g>
<g filter="url(#filter3_d_0_1)">
<rect x="106" y="20.4317" width="76.1886" height="32" rx="16" transform="rotate(-14 106 20.4317)" fill="#FFA776"/>
<rect x="108.424" y="21.8884" width="72.1886" height="28" rx="14" transform="rotate(-14 108.424 21.8884)" stroke="#1E1E1E" stroke-width="4"/>
</g>
<g filter="url(#filter4_d_0_1)">
<rect x="149" y="162.742" width="32" height="32" rx="16" transform="rotate(-14 149 162.742)" fill="#ABE5BC"/>
<rect x="151.424" y="164.198" width="28" height="28" rx="14" transform="rotate(-14 151.424 164.198)" stroke="#1E1E1E" stroke-width="4"/>
</g>
<path d="M94.0895 194.25H94.7095V197C94.7095 197.277 94.6179 197.495 94.4345 197.655C94.2512 197.818 93.9995 197.9 93.6795 197.9H92.8545V197.38H93.6695C93.8095 197.38 93.9145 197.347 93.9845 197.28C94.0545 197.213 94.0895 197.115 94.0895 196.985V196.78L94.1045 196.325H94.0695C94.0329 196.492 93.9529 196.62 93.8295 196.71C93.7095 196.797 93.5529 196.84 93.3595 196.84C93.0829 196.84 92.8629 196.745 92.6995 196.555C92.5362 196.365 92.4545 196.108 92.4545 195.785V195.25C92.4545 194.93 92.5362 194.675 92.6995 194.485C92.8629 194.295 93.0829 194.2 93.3595 194.2C93.5529 194.2 93.7095 194.245 93.8295 194.335C93.9529 194.422 94.0329 194.548 94.0695 194.715H94.1045L94.0895 194.25ZM93.5795 196.3C93.7362 196.3 93.8595 196.253 93.9495 196.16C94.0395 196.063 94.0845 195.93 94.0845 195.76V195.28C94.0845 195.11 94.0395 194.978 93.9495 194.885C93.8595 194.788 93.7362 194.74 93.5795 194.74C93.4195 194.74 93.2962 194.787 93.2095 194.88C93.1229 194.973 93.0795 195.107 93.0795 195.28V195.76C93.0795 195.933 93.1229 196.067 93.2095 196.16C93.2962 196.253 93.4195 196.3 93.5795 196.3ZM96.7876 193.835C96.6809 193.835 96.5942 193.805 96.5276 193.745C96.4642 193.685 96.4326 193.605 96.4326 193.505C96.4326 193.408 96.4642 193.33 96.5276 193.27C96.5942 193.207 96.6809 193.175 96.7876 193.175H96.8876C96.9909 193.175 97.0759 193.207 97.1426 193.27C97.2092 193.33 97.2426 193.408 97.2426 193.505C97.2426 193.605 97.2092 193.685 97.1426 193.745C97.0759 193.805 96.9892 193.835 96.8826 193.835H96.7876ZM98.0226 197H95.6126V196.43H96.5726V194.815H95.7376V194.25H97.1676V196.43H98.0226V197ZM100.191 197C99.9273 197 99.7206 196.928 99.5706 196.785C99.424 196.638 99.3506 196.435 99.3506 196.175V194.815H98.6056V194.25H99.3506V193.5H99.9806V194.25H101.036V194.815H99.9806V196.175C99.9806 196.348 100.066 196.435 100.236 196.435H100.986V197H100.191ZM103.269 194.2C103.542 194.2 103.759 194.29 103.919 194.47C104.082 194.65 104.164 194.892 104.164 195.195V197H103.539V195.26C103.539 195.097 103.495 194.97 103.409 194.88C103.322 194.787 103.2 194.74 103.044 194.74C102.887 194.74 102.765 194.787 102.679 194.88C102.592 194.973 102.549 195.107 102.549 195.28V197H101.924V193.35H102.549V194.25L102.534 194.775H102.544C102.57 194.595 102.647 194.455 102.774 194.355C102.9 194.252 103.065 194.2 103.269 194.2ZM106.187 197.05C105.837 197.05 105.562 196.953 105.362 196.76C105.162 196.563 105.062 196.297 105.062 195.96V194.25H105.687V195.955C105.687 196.132 105.73 196.268 105.817 196.365C105.903 196.458 106.027 196.505 106.187 196.505C106.347 196.505 106.47 196.458 106.557 196.365C106.643 196.268 106.687 196.132 106.687 195.955V194.25H107.312V195.96C107.312 196.297 107.21 196.563 107.007 196.76C106.807 196.953 106.533 197.05 106.187 197.05ZM109.57 194.2C109.846 194.2 110.066 194.295 110.23 194.485C110.393 194.675 110.475 194.932 110.475 195.255V196C110.475 196.323 110.393 196.58 110.23 196.77C110.066 196.957 109.846 197.05 109.57 197.05C109.366 197.05 109.2 197 109.07 196.9C108.943 196.797 108.866 196.655 108.84 196.475H108.83V197H108.22V193.35H108.845V194.12L108.825 194.775H108.84C108.866 194.595 108.943 194.455 109.07 194.355C109.2 194.252 109.366 194.2 109.57 194.2ZM109.85 195.28C109.85 195.107 109.806 194.975 109.72 194.885C109.633 194.792 109.51 194.745 109.35 194.745C109.19 194.745 109.065 194.792 108.975 194.885C108.888 194.978 108.845 195.11 108.845 195.28V195.97C108.845 196.14 108.888 196.273 108.975 196.37C109.065 196.463 109.19 196.51 109.35 196.51C109.51 196.51 109.633 196.463 109.72 196.37C109.806 196.277 109.85 196.143 109.85 195.97V195.28ZM112.418 197.05C112.294 197.05 112.191 197.008 112.108 196.925C112.024 196.838 111.983 196.732 111.983 196.605C111.983 196.478 112.024 196.373 112.108 196.29C112.191 196.203 112.294 196.16 112.418 196.16H112.548C112.671 196.16 112.774 196.203 112.858 196.29C112.941 196.373 112.983 196.478 112.983 196.605C112.983 196.732 112.941 196.838 112.858 196.925C112.774 197.008 112.671 197.05 112.548 197.05H112.418ZM115.646 197.05C115.293 197.05 115.011 196.953 114.801 196.76C114.594 196.563 114.491 196.3 114.491 195.97V195.28C114.491 194.95 114.594 194.688 114.801 194.495C115.011 194.298 115.293 194.2 115.646 194.2C115.993 194.2 116.269 194.29 116.476 194.47C116.683 194.647 116.791 194.888 116.801 195.195H116.176C116.166 195.052 116.114 194.942 116.021 194.865C115.928 194.785 115.803 194.745 115.646 194.745C115.479 194.745 115.349 194.792 115.256 194.885C115.163 194.975 115.116 195.105 115.116 195.275V195.97C115.116 196.14 115.163 196.272 115.256 196.365C115.349 196.458 115.479 196.505 115.646 196.505C115.803 196.505 115.928 196.467 116.021 196.39C116.114 196.31 116.166 196.198 116.176 196.055H116.801C116.791 196.362 116.683 196.605 116.476 196.785C116.269 196.962 115.993 197.05 115.646 197.05ZM118.779 197.05C118.429 197.05 118.151 196.953 117.944 196.76C117.741 196.563 117.639 196.3 117.639 195.97V195.28C117.639 194.95 117.741 194.688 117.944 194.495C118.151 194.298 118.429 194.2 118.779 194.2C119.129 194.2 119.406 194.298 119.609 194.495C119.816 194.688 119.919 194.948 119.919 195.275V195.97C119.919 196.3 119.816 196.563 119.609 196.76C119.406 196.953 119.129 197.05 118.779 197.05ZM118.779 196.505C118.946 196.505 119.072 196.46 119.159 196.37C119.249 196.277 119.294 196.143 119.294 195.97V195.28C119.294 195.107 119.249 194.975 119.159 194.885C119.072 194.792 118.946 194.745 118.779 194.745C118.612 194.745 118.484 194.792 118.394 194.885C118.307 194.975 118.264 195.107 118.264 195.28V195.97C118.264 196.143 118.307 196.277 118.394 196.37C118.484 196.46 118.612 196.505 118.779 196.505ZM122.617 194.2C122.784 194.2 122.917 194.265 123.017 194.395C123.12 194.522 123.172 194.692 123.172 194.905V197H122.622V194.95C122.622 194.85 122.602 194.773 122.562 194.72C122.522 194.667 122.464 194.64 122.387 194.64C122.31 194.64 122.252 194.667 122.212 194.72C122.172 194.773 122.152 194.85 122.152 194.95V197H121.702V194.95C121.702 194.85 121.68 194.773 121.637 194.72C121.597 194.667 121.537 194.64 121.457 194.64C121.31 194.64 121.237 194.743 121.237 194.95V197H120.687V194.25H121.197V194.62H121.222C121.239 194.49 121.289 194.388 121.372 194.315C121.455 194.238 121.559 194.2 121.682 194.2C121.795 194.2 121.89 194.237 121.967 194.31C122.044 194.383 122.095 194.487 122.122 194.62H122.147C122.164 194.49 122.214 194.388 122.297 194.315C122.38 194.238 122.487 194.2 122.617 194.2ZM124.525 197.55H123.875L125.625 192.85H126.275L124.525 197.55ZM127.748 197V194.895H126.993V194.33H127.748V194.12C127.748 193.887 127.825 193.7 127.978 193.56C128.131 193.42 128.336 193.35 128.593 193.35H129.428V193.9H128.608C128.535 193.9 128.476 193.92 128.433 193.96C128.393 194 128.373 194.057 128.373 194.13V194.33H129.428V194.895H128.373V197H127.748ZM131.771 197C131.498 197 131.278 196.918 131.111 196.755C130.948 196.592 130.866 196.377 130.866 196.11V193.915H130.026V193.35H131.491V196.11C131.491 196.207 131.519 196.285 131.576 196.345C131.636 196.405 131.714 196.435 131.811 196.435H132.666V197H131.771ZM134.519 197.05C134.169 197.05 133.891 196.953 133.684 196.76C133.481 196.563 133.379 196.3 133.379 195.97V195.28C133.379 194.95 133.481 194.688 133.684 194.495C133.891 194.298 134.169 194.2 134.519 194.2C134.869 194.2 135.146 194.298 135.349 194.495C135.556 194.688 135.659 194.948 135.659 195.275V195.97C135.659 196.3 135.556 196.563 135.349 196.76C135.146 196.953 134.869 197.05 134.519 197.05ZM134.519 196.505C134.686 196.505 134.812 196.46 134.899 196.37C134.989 196.277 135.034 196.143 135.034 195.97V195.28C135.034 195.107 134.989 194.975 134.899 194.885C134.812 194.792 134.686 194.745 134.519 194.745C134.352 194.745 134.224 194.792 134.134 194.885C134.047 194.975 134.004 195.107 134.004 195.28V195.97C134.004 196.143 134.047 196.277 134.134 196.37C134.224 196.46 134.352 196.505 134.519 196.505ZM137.192 197V194.895H136.437V194.33H137.192V194.12C137.192 193.887 137.269 193.7 137.422 193.56C137.576 193.42 137.781 193.35 138.037 193.35H138.872V193.9H138.052C137.979 193.9 137.921 193.92 137.877 193.96C137.837 194 137.817 194.057 137.817 194.13V194.33H138.872V194.895H137.817V197H137.192ZM141.135 194.2C141.432 194.2 141.665 194.292 141.835 194.475C142.005 194.658 142.09 194.912 142.09 195.235V195.435H141.435V195.28C141.435 195.103 141.389 194.967 141.295 194.87C141.205 194.773 141.08 194.725 140.92 194.725C140.76 194.725 140.635 194.775 140.545 194.875C140.455 194.972 140.41 195.107 140.41 195.28V197H139.785V194.25H140.375V194.775H140.38C140.424 194.585 140.509 194.442 140.635 194.345C140.762 194.248 140.929 194.2 141.135 194.2ZM144.008 193.835C143.902 193.835 143.815 193.805 143.748 193.745C143.685 193.685 143.653 193.605 143.653 193.505C143.653 193.408 143.685 193.33 143.748 193.27C143.815 193.207 143.902 193.175 144.008 193.175H144.108C144.212 193.175 144.297 193.207 144.363 193.27C144.43 193.33 144.463 193.408 144.463 193.505C144.463 193.605 144.43 193.685 144.363 193.745C144.297 193.805 144.21 193.835 144.103 193.835H144.008ZM145.243 197H142.833V196.43H143.793V194.815H142.958V194.25H144.388V196.43H145.243V197ZM147.601 193.35H148.226V197H147.616V196.475H147.606C147.58 196.655 147.501 196.797 147.371 196.9C147.245 197 147.08 197.05 146.876 197.05C146.6 197.05 146.38 196.957 146.216 196.77C146.053 196.58 145.971 196.323 145.971 196V195.255C145.971 194.932 146.053 194.675 146.216 194.485C146.38 194.295 146.6 194.2 146.876 194.2C147.08 194.2 147.245 194.252 147.371 194.355C147.501 194.455 147.58 194.595 147.606 194.775H147.621L147.601 194.12V193.35ZM147.096 196.51C147.256 196.51 147.38 196.463 147.466 196.37C147.556 196.273 147.601 196.14 147.601 195.97V195.28C147.601 195.11 147.556 194.978 147.466 194.885C147.38 194.792 147.256 194.745 147.096 194.745C146.936 194.745 146.813 194.792 146.726 194.885C146.64 194.975 146.596 195.107 146.596 195.28V195.97C146.596 196.143 146.64 196.277 146.726 196.37C146.813 196.463 146.936 196.51 147.096 196.51ZM150.284 194.2C150.631 194.2 150.901 194.282 151.094 194.445C151.288 194.608 151.384 194.838 151.384 195.135V197H150.779V196.52H150.769C150.736 196.683 150.644 196.813 150.494 196.91C150.348 197.003 150.164 197.05 149.944 197.05C149.668 197.05 149.448 196.977 149.284 196.83C149.121 196.68 149.039 196.478 149.039 196.225C149.039 195.952 149.129 195.742 149.309 195.595C149.489 195.445 149.744 195.37 150.074 195.37H150.759V195.14C150.759 195.003 150.718 194.898 150.634 194.825C150.551 194.752 150.431 194.715 150.274 194.715C150.134 194.715 150.019 194.745 149.929 194.805C149.843 194.862 149.791 194.943 149.774 195.05H149.164C149.194 194.79 149.309 194.583 149.509 194.43C149.713 194.277 149.971 194.2 150.284 194.2ZM150.154 196.58C150.338 196.58 150.484 196.537 150.594 196.45C150.704 196.363 150.759 196.245 150.759 196.095V195.76H150.084C149.958 195.76 149.856 195.797 149.779 195.87C149.703 195.943 149.664 196.042 149.664 196.165C149.664 196.292 149.708 196.393 149.794 196.47C149.881 196.543 150.001 196.58 150.154 196.58ZM152.752 197.9L153.142 196.85L152.107 194.25H152.787L153.292 195.66C153.339 195.793 153.387 195.968 153.437 196.185C153.487 195.965 153.534 195.79 153.577 195.66L154.047 194.25H154.707L153.412 197.9H152.752Z" fill="#F7EEDE"/>
<defs>
<filter id="filter0_d_0_1" x="41.1375" y="68.2" width="124.727" height="75.8" filterUnits="userSpaceOnUse" color-interpolation-filters="sRGB">
<feFlood flood-opacity="0" result="BackgroundImageFix"/>
<feColorMatrix in="SourceAlpha" type="matrix" values="0 0 0 0 0 0 0 0 0 0 0 0 0 0 0 0 0 0 127 0" result="hardAlpha"/>
<feOffset dx="4" dy="6"/>
<feComposite in2="hardAlpha" operator="out"/>
<feColorMatrix type="matrix" values="0 0 0 0 0.117647 0 0 0 0 0.117647 0 0 0 0 0.117647 0 0 0 1 0"/>
<feBlend mode="normal" in2="BackgroundImageFix" result="effect1_dropShadow_0_1"/>
<feBlend mode="normal" in="SourceGraphic" in2="effect1_dropShadow_0_1" result="shape"/>
</filter>
<filter id="filter1_d_0_1" x="11.3779" y="154.378" width="80.29" height="70.7734" filterUnits="userSpaceOnUse" color-interpolation-filters="sRGB">
<feFlood flood-opacity="0" result="BackgroundImageFix"/>
<feColorMatrix in="SourceAlpha" type="matrix" values="0 0 0 0 0 0 0 0 0 0 0 0 0 0 0 0 0 0 127 0" result="hardAlpha"/>
<feOffset dx="4" dy="6"/>
<feComposite in2="hardAlpha" operator="out"/>
<feColorMatrix type="matrix" values="0 0 0 0 0.117647 0 0 0 0 0.117647 0 0 0 0 0.117647 0 0 0 1 0"/>
<feBlend mode="normal" in2="BackgroundImageFix" result="effect1_dropShadow_0_1"/>
<feBlend mode="normal" in="SourceGraphic" in2="effect1_dropShadow_0_1" result="shape"/>
</filter>
<filter id="filter2_d_0_1" x="5.69263" y="-153.307" width="131.438" height="213.77" filterUnits="userSpaceOnUse" color-interpolation-filters="sRGB">
<feFlood flood-opacity="0" result="BackgroundImageFix"/>
<feColorMatrix in="SourceAlpha" type="matrix" values="0 0 0 0 0 0 0 0 0 0 0 0 0 0 0 0 0 0 127 0" result="hardAlpha"/>
<feOffset dx="4" dy="6"/>
<feComposite in2="hardAlpha" operator="out"/>
<feColorMatrix type="matrix" values="0 0 0 0 0.117647 0 0 0 0 0.117647 0 0 0 0 0.117647 0 0 0 1 0"/>
<feBlend mode="normal" in2="BackgroundImageFix" result="effect1_dropShadow_0_1"/>
<feBlend mode="normal" in="SourceGraphic" in2="effect1_dropShadow_0_1" result="shape"/>
</filter>
<filter id="filter3_d_0_1" x="109.392" y="5.39172" width="78.8838" height="48.6978" filterUnits="userSpaceOnUse" color-interpolation-filters="sRGB">
<feFlood flood-opacity="0" result="BackgroundImageFix"/>
<feColorMatrix in="SourceAlpha" type="matrix" values="0 0 0 0 0 0 0 0 0 0 0 0 0 0 0 0 0 0 127 0" result="hardAlpha"/>
<feOffset dx="4" dy="6"/>
<feComposite in2="hardAlpha" operator="out"/>
<feColorMatrix type="matrix" values="0 0 0 0 0.117647 0 0 0 0 0.117647 0 0 0 0 0.117647 0 0 0 1 0"/>
<feBlend mode="normal" in2="BackgroundImageFix" result="effect1_dropShadow_0_1"/>
<feBlend mode="normal" in="SourceGraphic" in2="effect1_dropShadow_0_1" result="shape"/>
</filter>
<filter id="filter4_d_0_1" x="152.392" y="158.392" width="36.0076" height="38.0076" filterUnits="userSpaceOnUse" color-interpolation-filters="sRGB">
<feFlood flood-opacity="0" result="BackgroundImageFix"/>
<feColorMatrix in="SourceAlpha" type="matrix" values="0 0 0 0 0 0 0 0 0 0 0 0 0 0 0 0 0 0 127 0" result="hardAlpha"/>
<feOffset dx="4" dy="6"/>
<feComposite in2="hardAlpha" operator="out"/>
<feColorMatrix type="matrix" values="0 0 0 0 0.117647 0 0 0 0 0.117647 0 0 0 0 0.117647 0 0 0 1 0"/>
<feBlend mode="normal" in2="BackgroundImageFix" result="effect1_dropShadow_0_1"/>
<feBlend mode="normal" in="SourceGraphic" in2="effect1_dropShadow_0_1" result="shape"/>
</filter>
</defs>
</svg>
